{"title":"The Fabulous Baker Boys (1989) 720p BDRip","uid":11107305,"size":4690335875,"categoryP":"video","categoryS":"hd___movies","magnet":"?xt=urn:btih:9a4b97d5345c0b84742d44e21c02932b7195cfbc&amp;dn=The+Fabulous+Baker+Boys+%281989%29+720p+BDRip&amp;tr=udp%3A%2F%2Ftracker.openbittorrent.com%3A80&amp;tr=udp%3A%2F%2Fopen.demonii.com%3A1337&amp;tr=udp%3A%2F%2Ftracker.coppersurfer.tk%3A6969&amp;tr=udp%3A%2F%2Fexodus.desync.com%3A6969","seeders":0,"leechers":0,"uploader":null,"files":-1,"time":1411743130,"description":"Frank and Jack Baker are professional musicians who play small clubs. They play schmaltzy music and have never needed a day job. Times are changing and dates are becoming more difficult to get so they interview female singers. They finally decide on Susie Diamond, a former 'escort' who needs some refinement, but the act begins to take off again. While the act is now successful, both Frank and Jack have problems with their life on the road. Susie becomes the agent that makes them re-evaluate where they are going, and how honest they have been with each other. \n\nScreens:\n &lt;a href=&quot;\nhttp://i.imgur.com/VyB1koq.jpg&quot; rel=&quot;nofollow&quot; target=&quot;_NEW&quot;&gt;\nhttp://i.imgur.com/VyB1koq.jpg&lt;/a&gt; &lt;a href=&quot;\nhttp://i.imgur.com/xAYrYQg.jpg&quot; rel=&quot;nofollow&quot; target=&quot;_NEW&quot;&gt;\nhttp://i.imgur.com/xAYrYQg.jpg&lt;/a&gt; &lt;a href=&quot;\nhttp://i.imgur.com/XK1I1M3.jpg&quot; rel=&quot;nofollow&quot; target=&quot;_NEW&quot;&gt;\nhttp://i.imgur.com/XK1I1M3.jpg&lt;/a&gt; &lt;a href=&quot;\nhttp://i.imgur.com/90X4yws.jpg&quot; rel=&quot;nofollow&quot; target=&quot;_NEW&quot;&gt;\nhttp://i.imgur.com/90X4yws.jpg&lt;/a&gt; &lt;a href=&quot;\nhttp://i.imgur.com/d2NFjiX.jpg&quot; rel=&quot;nofollow&quot; target=&quot;_NEW&quot;&gt;\nhttp://i.imgur.com/d2NFjiX.jpg&lt;/a&gt; &lt;a href=&quot;\nhttp://i.imgur.com/uHT8eWa.jpg&quot; rel=&quot;nofollow&quot; target=&quot;_NEW&quot;&gt;\nhttp://i.imgur.com/uHT8eWa.jpg&lt;/a&gt;\n\nGeneral\nComplete name                            : The.Fabulous.Baker.Boys.1989.720p.BluRay.x264-Counterfeit.mkv\nFormat                                   : Matroska\nFormat version                           : Version 2\nFile size                                : 4.37 GiB\nDuration                                 : 1h 53mn\nOverall bit rate                         : 5 517 Kbps\nWriting application                      : mkvmerge v6.6.0 ('The Edge Of The In Between') built on Dec 1 2013 17:55:00\nWriting library                          : libebml v1.3.0 + libmatroska v1.4.1\n\nVideo\nID                                       : 1\nFormat                                   : AVC\nFormat/Info                              : Advanced Video Codec\nFormat profile                           : &lt;a class=&quot;__cf_email__&quot; href=&quot;/cdn-cgi/l/email-protection&quot; data-cfemail=&quot;89c1e0eee1c9c5bda7b8&quot;&gt;[email&amp;#160;protected]&lt;/a&gt;&lt;script data-cfhash='f9e31' type=&quot;text/javascript&quot;&gt;\n/* &lt;![CDATA[ */!function(){try{var t=&quot;currentScript&quot;in document?document.currentScript:function(){for(var t=document.getElementsByTagName(&quot;script&quot;),e=t.length;e--;)if(t[e].getAttribute(&quot;data-cfhash&quot;))return t[e]}();if(t&amp;&amp;t.previousSibling){var e,r,n,i,c=t.previousSibling,a=c.getAttribute(&quot;data-cfemail&quot;);if(a){for(e=&quot;&quot;,r=parseInt(a.substr(0,2),16),n=2;a.length-n;n+=2)i=parseInt(a.substr(n,2),16)^r,e+=String.fromCharCode(i);e=document.createTextNode(e),c.parentNode.replaceChild(e,c)}t.parentNode.removeChild(t);}}catch(u){}}()/* ]]&gt; */&lt;/script&gt;\nFormat settings, CABAC                   : Yes\nFormat settings, ReFrames                : 5 frames\nCodec ID                                 : V_MPEG4/ISO/AVC\nDuration                                 : 1h 53mn\nBit rate                                 : 4 876 Kbps\nWidth                                    : 1 280 pixels\nHeight                                   : 696 pixels\nDisplay aspect ratio                     : 1.85:1\nFrame rate mode                          : Constant\nFrame rate                               : 24.000 fps\nColor space                              : YUV\nChroma subsampling                       : 4:2:0\nBit depth                                : 8 bits\nScan type                                : Progressive\nBits/(Pixel*Frame)                       : 0.228\nStream size                              : 3.77 GiB (86%)\nWriting library                          : x264 core 142 r2453 ea0ca51\nEncoding settings                        : cabac=1 / ref=5 / deblock=1:0:0 / analyse=0x3:0x133 / me=umh / subme=8 / psy=1 / psy_rd=1.00:0.00 / mixed_ref=1 / me_range=16 / chroma_me=1 / trellis=1 / 8x8dct=1 / cqm=0 / deadzone=21,11 / fast_pskip=0 / chroma_qp_offset=-2 / threads=12 / lookahead_threads=2 / sliced_threads=0 / nr=0 / decimate=1 / interlaced=0 / bluray_compat=0 / constrained_intra=0 / bframes=3 / b_pyramid=2 / b_adapt=2 / b_bias=0 / direct=3 / weightb=1 / open_gop=0 / weightp=2 / keyint=250 / keyint_min=24 / scenecut=40 / intra_refresh=0 / rc_lookahead=50 / rc=2pass / mbtree=1 / bitrate=4876 / ratetol=1.0 / qcomp=0.60 / qpmin=0 / qpmax=69 / qpstep=4 / cplxblur=20.0 / qblur=0.5 / ip_ratio=1.40 / aq=1:1.00\nLanguage                                 : English\nDefault                                  : Yes\nForced                                   : No\n\nAudio\nID                                       : 2\nFormat                                   : AC-3\nFormat/Info                              : Audio Coding 3\nMode extension                           : CM (complete main)\nFormat settings, Endianness              : Big\nCodec ID                                 : A_AC3\nDuration                                 : 1h 53mn\nBit rate mode                            : Constant\nBit rate                                 : 640 Kbps\nChannel count                            : 2 channels\nChannel positions                        : Front: L R\nSampling rate                            : 48.0 KHz\nBit depth                                : 16 bits\nCompression mode                         : Lossy\nStream size                              : 519 MiB (12%)\nTitle                                    : English\nLanguage                                 : English\nDefault                                  : Yes\nForced                                   : No\n\nMenu\n00:00:00.000                             : en:00:00:00.000\n00:19:00.000                             : en:00:19:00.000\n00:33:25.000                             : en:00:33:25.000\n00:51:27.083                             : en:00:51:27.083\n01:10:30.625                             : en:01:10:30.625\n01:32:42.667                             : en:01:32:42.667\n\n","torrent":{"xt":"urn:btih:9a4b97d5345c0b84742d44e21c02932b7195cfbc","amp;dn":"The+Fabulous+Baker+Boys+%281989%29+720p+BDRip","amp;tr":["udp%3A%2F%2Ftracker.openbittorrent.com%3A80","udp%3A%2F%2Fopen.demonii.com%3A1337","udp%3A%2F%2Ftracker.coppersurfer.tk%3A6969","udp%3A%2F%2Fexodus.desync.com%3A6969"],"infoHash":"9a4b97d5345c0b84742d44e21c02932b7195cfbc","infoHashBuffer":{"type":"Buffer","data":[154,75,151,213,52,92,11,132,116,45,68,226,28,2,147,43,113,149,207,188]},"announce":[],"urlList":[]}}